<?xml version="1.0" standalone="no"?><!DOCTYPE svg PUBLIC "-//W3C//DTD SVG 1.1//EN" "http://www.w3.org/Graphics/SVG/1.1/DTD/svg11.dtd"><svg t="1684314670546" class="icon" viewBox="0 0 1024 1024" version="1.1" xmlns="http://www.w3.org/2000/svg" p-id="4779" width="64" height="64" xmlns:xlink="http://www.w3.org/1999/xlink"><path d="M512 938.666667C276.352 938.666667 85.333333 747.648 85.333333 512a426.666667 426.666667 0 0 1 245.418667-386.346667l11.264-5.12a42.368 42.368 0 0 1 36.053333 76.672l-34.261333 17.749334A341.504 341.504 0 0 0 512 853.333333a341.504 341.504 0 0 0 295.552-170.453333l5.888-10.581333a42.666667 42.666667 0 0 1 75.648 39.381333l-3.754667 7.04A426.538667 426.538667 0 0 1 512 938.666667z m384-384h-341.333333a85.333333 85.333333 0 0 1-85.333334-85.333334V128a42.666667 42.666667 0 0 1 42.666667-42.666667c235.648 0 426.666667 191.018667 426.666667 426.666667a42.666667 42.666667 0 0 1-42.666667 42.666667z m-341.333333-358.272V426.666667a42.666667 42.666667 0 0 0 42.666666 42.666666h235.605334a15.232 15.232 0 0 0 15.018666-17.92 341.546667 341.546667 0 0 0-269.824-274.346666 19.626667 19.626667 0 0 0-23.466666 19.328z" fill="#ffffff" p-id="4780"></path></svg>